<svg width="329" height="108" viewBox="0 0 329 108" fill="none" xmlns="http://www.w3.org/2000/svg">
<path fill-rule="evenodd" clip-rule="evenodd" d="M317.489 22.2013C323.413 22.2013 328.215 17.4 328.215 11.476C328.215 5.5533 323.413 0.752012 317.489 0.752012C311.567 0.752012 306.764 5.5533 306.764 11.476C306.764 17.4 311.567 22.2013 317.489 22.2013ZM317.489 18.3027L310.96 7.27864H314.296C315.063 7.32264 315.447 7.63333 315.768 8.23866L317.489 11.228L317.491 11.2294L319.213 8.28534C319.595 7.63201 319.916 7.34797 320.611 7.27864H324.02L317.489 18.3027ZM317.489 2.85331C312.728 2.85331 308.867 6.71464 308.867 11.476C308.867 16.2386 312.728 20.0987 317.489 20.0987C322.252 20.0987 326.112 16.2386 326.112 11.476C326.112 6.71464 322.252 2.85331 317.489 2.85331Z" fill="#F21C3F"/>
<path d="M28.4253 29.6654C28.4253 18.8667 21.0145 15.4814 14.5615 15.4814H0.505737V60.7161H10.5364V44.2321H14.9448C21.6536 44.2321 28.4253 39.7601 28.4253 29.6654ZM18.8421 29.8574C18.8421 33.7534 16.6057 35.9267 13.7948 35.9267H10.5364V24.1067H13.7948C16.6057 24.1067 18.8421 25.8307 18.8421 29.8574Z" fill="#F21C3F"/>
<path d="M60.7813 43.976V15.4813H50.5586V43.0813C50.5586 48.1933 49.536 52.0907 45.512 52.0907C41.4866 52.0907 40.464 48.1933 40.464 43.0813V15.4813H30.1773V43.976C30.1773 54.0067 34.2666 61.9294 45.32 61.9294C56.372 61.9294 60.7813 53.9427 60.7813 43.976Z" fill="#F21C3F"/>
<path d="M93.584 47.8094C93.584 41.484 89.8786 38.0347 86.428 37.14V37.012C89.5586 35.5427 92.0507 32.412 92.0507 27.1094C92.0507 17.3334 84.32 15.4814 78.6973 15.4814H65.1533V60.7161H80.1667C86.62 60.7161 93.584 57.4574 93.584 47.8094ZM83.0413 28.7707C83.0413 32.348 80.6787 33.7534 78.1853 33.7534H74.672V23.9787H78.1227C80.7413 23.9787 83.0413 25.2574 83.0413 28.7707ZM83.872 46.8521C83.872 50.4294 81.508 52.2174 78.5053 52.2174H74.672V41.2294H78.3773C80.9973 41.2294 83.872 42.8267 83.872 46.8521Z" fill="#F21C3F"/>
<path d="M119.423 60.7161V51.2601H107.347V15.4814H96.9973V60.7161H119.423Z" fill="#F21C3F"/>
<path d="M131.397 60.7161V15.4814H121.111V60.7161H131.397Z" fill="#F21C3F"/>
<path d="M109.197 105.475V67.8947H104.972V84.1H104.872C104.127 81.5147 102.039 79.676 99.156 79.676C93.936 79.676 91.2026 85.144 91.2026 92.848C91.2026 100.603 94.0853 106.32 99.156 106.32C102.585 106.32 104.176 104.232 104.972 101.548H105.071V105.475H109.197ZM105.071 92.9974C105.071 98.3667 103.481 102.592 100.249 102.592C96.9693 102.592 95.5773 98.3667 95.5773 92.9974C95.5773 87.58 96.9693 83.3547 100.249 83.3547C103.431 83.3547 105.071 87.58 105.071 92.9974Z" fill="#7B7979"/>
<path d="M128.519 105.475C128.32 104.281 128.171 101.945 128.171 100.255V90.164C128.171 83.504 126.281 79.676 120.565 79.676C117.98 79.676 115.048 80.968 113.407 83.2054L115.545 85.84C116.639 84.348 118.328 83.3054 120.168 83.3054C122.653 83.3054 124.293 84.9947 124.293 88.872V89.9653H122.653C118.279 89.9653 112.563 91.5067 112.563 98.7147C112.563 104.083 115.893 106.121 118.676 106.121C121.957 106.121 123.847 104.331 124.543 101.349H124.641C124.641 102.243 124.791 103.983 125.039 105.475H128.519ZM124.393 94.6387C124.393 98.068 123.249 102.691 119.82 102.691C118.08 102.691 116.539 101.299 116.539 98.2667C116.539 94.0907 119.572 93.1973 122.553 93.1973H124.393V94.6387Z" fill="#7B7979"/>
<path d="M165.159 65.4893L159.473 72.5813C158.26 70.728 156.215 69.1307 153.468 69.1307C148.037 69.1307 145.225 75.3933 145.225 83.1867C145.225 91.1093 148.037 97.2427 153.403 97.2427C156.279 97.2427 158.068 95.964 159.601 93.92L165.095 101.332C162.668 104.591 158.643 107.019 152.637 107.019C142.159 107.019 135.067 97.3707 135.067 83.1867C135.067 69.1947 142.095 59.356 152.637 59.356C158.897 59.356 162.668 62.04 165.159 65.4893Z" fill="#FFA621"/>
<path d="M177.007 60.5693V105.804H166.72V60.5693H177.007Z" fill="#FFA621"/>
<path d="M213.643 83.06C213.643 96.9867 207.828 105.804 194.859 105.804H182.145V60.5693H194.859C207.764 60.5693 213.643 69.3867 213.643 83.06ZM203.356 83.06C203.356 74.3067 199.905 69.5147 194.987 69.5147H192.495V96.86H194.987C199.905 96.86 203.356 92.132 203.356 83.06Z" fill="#FFA621"/>
<path d="M246.125 60.5693L235.2 105.804H222.359L211.369 60.5693H221.592L223.445 68.812H233.603L235.456 60.5693H246.125ZM232.325 76.7346H224.595L228.428 95.964H228.684L232.325 76.7346Z" fill="#FFA621"/>
<path d="M278.673 83.06C278.673 96.9867 272.859 105.804 259.889 105.804H247.176V60.5693H259.889C272.795 60.5693 278.673 69.3867 278.673 83.06ZM268.387 83.06C268.387 74.3067 264.936 69.5147 260.017 69.5147H257.525V96.86H260.017C264.936 96.86 268.387 92.132 268.387 83.06Z" fill="#FFA621"/>
<path d="M304.576 60.5693V69.7066H291.733V79.4813H302.851V87.9147H291.733V96.7947H303.809V105.804H281.959V60.5693H304.576Z" fill="#FFA621"/>
<path d="M165.159 56.0507L159.473 48.9601C158.26 50.8121 156.215 52.4093 153.468 52.4093C148.037 52.4093 145.225 46.148 145.225 38.3534C145.225 30.4307 148.037 24.2974 153.403 24.2974C156.279 24.2974 158.068 25.576 159.601 27.62L165.095 20.2094C162.668 16.9507 158.643 14.5227 152.637 14.5227C142.159 14.5227 135.067 24.1694 135.067 38.3534C135.067 52.3454 142.095 62.184 152.637 62.184C158.897 62.184 162.668 59.5014 165.159 56.0507Z" fill="#F21C3F"/>
<path d="M177.007 60.9706V15.736H166.72V60.9706H177.007Z" fill="#F21C3F"/>
<path d="M213.643 38.4813C213.643 24.5533 207.828 15.736 194.859 15.736H182.145V60.9706H194.859C207.764 60.9706 213.643 52.1533 213.643 38.4813ZM203.356 38.4813C203.356 47.2347 199.905 52.0267 194.987 52.0267H192.495V24.6813H194.987C199.905 24.6813 203.356 29.4093 203.356 38.4813Z" fill="#F21C3F"/>
<path d="M246.125 60.9706L235.2 15.736H222.359L211.369 60.9706H221.592L223.445 52.728H233.603L235.456 60.9706H246.125ZM232.325 44.8066H224.595L228.428 25.576H228.684L232.325 44.8066Z" fill="#F21C3F"/>
<path d="M278.673 38.4813C278.673 24.5533 272.859 15.736 259.889 15.736H247.176V60.9706H259.889C272.795 60.9706 278.673 52.1533 278.673 38.4813ZM268.387 38.4813C268.387 47.2347 264.936 52.0267 260.017 52.0267H257.525V24.6813H260.017C264.936 24.6813 268.387 29.4093 268.387 38.4813Z" fill="#F21C3F"/>
<path d="M304.576 60.9706V51.8346H291.733V42.06H302.851V33.6253H291.733V24.7453H303.809V15.736H281.959V60.9706H304.576Z" fill="#F21C3F"/>
</svg>
