<svg width="329" height="107" viewBox="0 0 329 107" fill="none" xmlns="http://www.w3.org/2000/svg">
<path fill-rule="evenodd" clip-rule="evenodd" d="M317.489 22.049C323.413 22.049 328.215 17.2474 328.215 11.324C328.215 5.40109 323.413 0.599488 317.489 0.599488C311.567 0.599488 306.764 5.40109 306.764 11.324C306.764 17.2474 311.567 22.049 317.489 22.049ZM317.489 18.15L310.96 7.12655H314.296C315.063 7.17082 315.447 7.48176 315.768 8.08696L317.489 11.076L317.491 11.0776L319.213 8.13282C319.595 7.47975 319.916 7.19642 320.611 7.12655H324.02L317.489 18.1506V18.15ZM317.489 2.70163C312.728 2.70163 308.867 6.56202 308.867 11.324C308.867 16.0864 312.728 19.947 317.489 19.947C322.252 19.947 326.112 16.0864 326.112 11.324C326.112 6.56202 322.252 2.70163 317.489 2.70163Z" fill="#F21C3F"/>
<path d="M28.4253 29.5131C28.4253 18.7151 21.0145 15.3292 14.5615 15.3292H0.505737V60.5636H10.5364V44.0797H14.9448C21.6536 44.0797 28.4253 39.6073 28.4253 29.5131ZM18.8421 29.7047C18.8421 33.6016 16.6057 35.774 13.7948 35.774H10.5364V23.9547H13.7948C16.6057 23.9547 18.8421 25.6792 18.8421 29.7047Z" fill="white"/>
<path d="M60.7813 43.824V15.3292H50.5586V42.9298C50.5586 48.0412 49.536 51.938 45.512 51.938C41.4866 51.938 40.464 48.0412 40.464 42.9298V15.3292H30.1773V43.824C30.1773 53.8552 34.2666 61.7771 45.32 61.7771C56.372 61.7771 60.7813 53.7912 60.7813 43.824Z" fill="white"/>
<path d="M93.584 47.6579C93.584 41.3323 89.8786 37.8823 86.428 36.988V36.8599C89.5586 35.3907 92.0507 32.2599 92.0507 26.9573C92.0507 17.1817 84.32 15.3292 78.6973 15.3292H65.1533V60.5636H80.1667C86.62 60.5636 93.584 57.3052 93.584 47.6579ZM83.0413 28.6183C83.0413 32.1959 80.6787 33.6016 78.1853 33.6016H74.672V23.8265H78.1227C80.7413 23.8265 83.0413 25.1047 83.0413 28.6183ZM83.872 46.6995C83.872 50.2771 81.508 52.0656 78.5053 52.0656H74.672V41.0771H78.3773C80.9973 41.0771 83.872 42.674 83.872 46.6995Z" fill="white"/>
<path d="M119.423 60.5636V51.1079H107.347V15.3292H96.9973V60.5636H119.423Z" fill="white"/>
<path d="M131.397 60.5636V15.3292H121.111V60.5636H131.397Z" fill="white"/>
<path d="M109.197 105.322V67.7432H104.972V83.9479H104.872C104.127 81.3631 102.039 79.524 99.156 79.524C93.936 79.524 91.2026 84.9916 91.2026 92.6964C91.2026 100.451 94.0853 106.168 99.156 106.168C102.585 106.168 104.176 104.08 104.972 101.395H105.071V105.322H109.197ZM105.071 92.8459C105.071 98.2141 103.481 102.44 100.249 102.44C96.9693 102.44 95.5773 98.2141 95.5773 92.8459C95.5773 87.4276 96.9693 83.2022 100.249 83.2022C103.431 83.2022 105.071 87.4276 105.071 92.8459Z" fill="white"/>
<path d="M128.519 105.322C128.32 104.13 128.171 101.793 128.171 100.103V90.0125C128.171 83.3516 126.281 79.524 120.565 79.524C117.98 79.524 115.048 80.8161 113.407 83.0531L115.545 85.6875C116.639 84.1964 118.328 83.1527 120.168 83.1527C122.653 83.1527 124.293 84.8427 124.293 88.7203V89.8136H122.653C118.279 89.8136 112.563 91.3541 112.563 98.562C112.563 103.93 115.893 105.969 118.676 105.969C121.957 105.969 123.847 104.179 124.543 101.197H124.641C124.641 102.091 124.791 103.831 125.039 105.322H128.519ZM124.393 94.4859C124.393 97.9161 123.249 102.539 119.82 102.539C118.08 102.539 116.539 101.147 116.539 98.1146C116.539 93.9391 119.572 93.0448 122.553 93.0448H124.393V94.4859Z" fill="white"/>
<path d="M165.159 65.3375L159.473 72.4292C158.26 70.5765 156.215 68.9792 153.468 68.9792C148.037 68.9792 145.225 75.2407 145.225 83.0349C145.225 90.9573 148.037 97.0906 153.403 97.0906C156.279 97.0906 158.068 95.8125 159.601 93.7683L165.095 101.18C162.668 104.438 158.643 106.866 152.637 106.866C142.159 106.866 135.067 97.2182 135.067 83.0349C135.067 69.0432 142.095 59.2036 152.637 59.2036C158.897 59.2036 162.668 61.8875 165.159 65.3375Z" fill="#FFA621"/>
<path d="M177.007 60.4178V105.652H166.72V60.4178H177.007Z" fill="#FFA621"/>
<path d="M213.643 82.9074C213.643 96.8349 207.828 105.652 194.859 105.652H182.145V60.4178H194.859C207.764 60.4178 213.643 69.235 213.643 82.9074ZM203.356 82.9074C203.356 74.1542 199.905 69.3626 194.987 69.3626H192.495V96.7073H194.987C199.905 96.7073 203.356 91.9798 203.356 82.9074Z" fill="#FFA621"/>
<path d="M246.125 60.4178L235.2 105.652H222.359L211.369 60.4178H221.592L223.445 68.6594H233.603L235.456 60.4178H246.125ZM232.325 76.5823H224.595L228.428 95.8125H228.684L232.325 76.5823Z" fill="#FFA621"/>
<path d="M278.673 82.9074C278.673 96.8349 272.859 105.652 259.889 105.652H247.176V60.4178H259.889C272.795 60.4178 278.673 69.235 278.673 82.9074ZM268.387 82.9074C268.387 74.1542 264.936 69.3626 260.017 69.3626H257.525V96.7073H260.017C264.936 96.7073 268.387 91.9798 268.387 82.9074Z" fill="#FFA621"/>
<path d="M304.576 60.4178V69.5542H291.733V79.3292H302.851V87.7626H291.733V96.6432H303.809V105.652H281.959V60.4178H304.576Z" fill="#FFA621"/>
<path d="M165.159 55.899L159.473 48.8074C158.26 50.6599 156.215 52.2574 153.468 52.2574C148.037 52.2574 145.225 45.9959 145.225 38.2016C145.225 30.2792 148.037 24.1459 153.403 24.1459C156.279 24.1459 158.068 25.4235 159.601 27.4678L165.095 20.0568C162.668 16.7984 158.643 14.3703 152.637 14.3703C142.159 14.3703 135.067 24.0178 135.067 38.2016C135.067 52.1932 142.095 62.0323 152.637 62.0323C158.897 62.0323 162.668 59.349 165.159 55.899Z" fill="white"/>
<path d="M177.007 60.8183V15.5844H166.72V60.8183H177.007Z" fill="white"/>
<path d="M213.643 38.3292C213.643 24.4011 207.828 15.5844 194.859 15.5844H182.145V60.8183H194.859C207.764 60.8183 213.643 52.0016 213.643 38.3292ZM203.356 38.3292C203.356 47.0823 199.905 51.874 194.987 51.874H192.495V24.5292H194.987C199.905 24.5292 203.356 29.2568 203.356 38.3292Z" fill="white"/>
<path d="M246.125 60.8183L235.2 15.5844H222.359L211.369 60.8183H221.592L223.445 52.5766H233.603L235.456 60.8183H246.125ZM232.325 44.6542H224.595L228.428 25.4235H228.684L232.325 44.6542Z" fill="white"/>
<path d="M278.673 38.3292C278.673 24.4011 272.859 15.5844 259.889 15.5844H247.176V60.8183H259.889C272.795 60.8183 278.673 52.0016 278.673 38.3292ZM268.387 38.3292C268.387 47.0823 264.936 51.874 260.017 51.874H257.525V24.5292H260.017C264.936 24.5292 268.387 29.2568 268.387 38.3292Z" fill="white"/>
<path d="M304.576 60.8183V51.6823H291.733V41.9074H302.851V33.4735H291.733V24.5927H303.809V15.5844H281.959V60.8183H304.576Z" fill="white"/>
</svg>
