<?xml version="1.0" encoding="UTF-8"?>
<!DOCTYPE svg PUBLIC "-//W3C//DTD SVG 1.1//EN" "http://www.w3.org/Graphics/SVG/1.1/DTD/svg11.dtd">
<!-- Creator: CorelDRAW 2020 (64 Bit) -->
<svg xmlns="http://www.w3.org/2000/svg" xml:space="preserve" width="300px" height="57px" version="1.1" style="shape-rendering:geometricPrecision; text-rendering:geometricPrecision; image-rendering:optimizeQuality; fill-rule:evenodd; clip-rule:evenodd"
viewBox="0 0 30003 5659"
 xmlns:xlink="http://www.w3.org/1999/xlink"
 xmlns:xodm="http://www.corel.com/coreldraw/odm/2003">
 <defs>
  <style type="text/css">
   <![CDATA[
    .fil0 {fill:#ED323E}
    .fil1 {fill:#ED323E;fill-rule:nonzero}
   ]]>
  </style>
 </defs>
 <g id="Camada_x0020_1">
  <metadata id="CorelCorpID_0Corel-Layer"/>
  <path class="fil0" d="M6806 1677l800 0c202,12 303,95 387,256l539 945 540 -933c101,-173 185,-249 368,-268l819 0 -1740 2933 -1713 -2933z"/>
  <path class="fil0" d="M17842 1733l0 1421c0,314 -25,547 -75,699 -49,151 -133,286 -250,403 -121,123 -272,216 -452,276 -181,61 -393,91 -637,91 -242,0 -453,-30 -632,-91 -180,-60 -333,-153 -459,-276 -118,-114 -201,-247 -250,-401 -49,-153 -73,-387 -73,-701l0 -1421 668 0c111,8 254,52 253,282l0 1133c0,367 64,710 489,710 440,0 475,-336 475,-710l0 -1122c-8,-270 140,-285 251,-293l692 0z"/>
  <path class="fil0" d="M11870 4311l171 -541c72,-183 264,-113 406,-73 267,81 453,125 717,160 138,18 266,13 318,-12 75,-35 141,-108 148,-191 11,-124 -89,-189 -356,-247 -95,-20 -222,-50 -278,-65 -499,-136 -967,-257 -967,-817 0,-641 641,-910 1268,-900 347,6 852,97 1247,257l-153 457c-64,210 -236,159 -367,127 -114,-28 -282,-74 -496,-112 -122,-22 -289,-26 -357,9 -65,33 -89,66 -89,133 0,100 84,194 374,263 301,73 731,180 952,376 352,312 227,984 -152,1258 -246,177 -556,243 -959,243 -531,0 -921,-100 -1427,-325z"/>
  <path class="fil0" d="M19585 3942c87,0 169,-1 248,-5 79,-4 142,-9 189,-16l0 -490c-35,-7 -88,-14 -159,-21 -71,-7 -136,-11 -195,-11 -83,0 -161,5 -234,14 -73,8 -137,25 -192,50 -55,25 -88,56 -121,98 -90,117 -2,269 83,309 94,45 219,72 381,72zm-71 -2275c260,0 477,26 650,80 174,54 313,131 417,231 104,100 178,222 222,365 43,143 65,302 65,477l0 1664c-126,25 -302,54 -526,88 -225,34 -497,51 -816,51 -201,0 -383,-16 -547,-48 -164,-32 -304,-85 -423,-159 -118,-73 -209,-169 -272,-287 -63,-118 -104,-258 -104,-429 0,-165 46,-309 119,-424 73,-114 171,-205 293,-273 122,-68 262,-118 420,-148 157,-30 321,-46 490,-46 114,0 216,5 305,14 88,9 160,21 215,35l0 -75c0,-136 -34,-192 -125,-275 -91,-82 -248,-123 -473,-123 -150,0 -298,10 -443,29 -290,68 -414,-66 -430,-208l-72 -405c52,-15 116,-30 193,-46 76,-16 160,-30 251,-43 90,-12 186,-23 287,-32 100,-9 202,-13 304,-13z"/>
  <path class="fil0" d="M27078 3140c4,-883 634,-1512 1494,-1512 442,0 790,123 1047,369 256,245 384,607 384,1084 0,100 -1,251 -10,351l-1998 0c65,318 478,448 795,448 155,0 341,-30 497,-57 200,-35 382,30 459,260l74 349c-48,22 -111,43 -190,65 -78,21 -166,40 -263,56 -96,16 -200,30 -310,41 -110,10 -221,16 -331,16 -946,0 -1653,-505 -1648,-1470zm2074 -306c-20,-343 -249,-544 -582,-544 -351,0 -579,237 -605,544l1187 0z"/>
  <path class="fil0" d="M10565 1678l651 0c172,-3 274,87 272,285l0 2587 -923 0 0 -2872z"/>
  <path class="fil0" d="M10565 1379l650 0c207,3 276,-94 273,-294l0 -397 -672 0c-201,1 -262,115 -251,284l0 407z"/>
  <path class="fil0" d="M21402 677l651 0c172,-3 273,87 271,285l0 3588 -922 0 0 -3873z"/>
  <path class="fil1" d="M26529 3806l-912 0 1347 -2126 -2699 0 0 375c0,200 146,350 387,330l784 0 -1278 2161 2746 0 0 -384c-8,-249 -142,-332 -375,-356z"/>
  <path class="fil0" d="M22850 1678l651 0c171,-3 273,87 271,285l0 2587 -922 0 0 -2872z"/>
  <path class="fil0" d="M22850 1379l649 0c207,3 276,-94 273,-294l0 -397 -671 0c-201,1 -263,115 -251,284l0 407z"/>
  <path class="fil0" d="M2830 5659c1562,0 2829,-1267 2829,-2829 0,-1563 -1267,-2830 -2829,-2830 -1563,0 -2830,1267 -2830,2830 0,1562 1267,2829 2830,2829zm0 -1051l-1723 -2909 880 0c202,12 304,94 388,254l455 788 0 1 454 -777c101,-173 186,-247 369,-266l900 0 -1723 2909 0 0zm0 -4053c-1257,0 -2275,1018 -2275,2275 0,1256 1018,2274 2275,2274 1256,0 2274,-1018 2274,-2274 0,-1257 -1018,-2275 -2274,-2275z"/>
 </g>
</svg>
